<?xml version="1.0" encoding="utf-8"?>
<!-- Svg Vector Icons : http://www.onlinewebfonts.com/icon -->
<!DOCTYPE svg PUBLIC "-//W3C//DTD SVG 1.1//EN" "http://www.w3.org/Graphics/SVG/1.1/DTD/svg11.dtd">
<svg version="1.1" xmlns="http://www.w3.org/2000/svg" xmlns:xlink="http://www.w3.org/1999/xlink" x="0px" y="0px" viewBox="0 0 1000 1000" enable-background="new 0 0 1000 1000" xml:space="preserve">
<metadata> Svg Vector Icons : http://www.onlinewebfonts.com/icon </metadata>
<g><path d="M587,729.2c0,0,103-67,123.6-77.3c20.6-10.3,43.8-15.5,56.7-5.2C788,659.7,960.5,773,976,783.3s20.6,38.6,2.6,67C958,878.6,867.8,992,829.2,989.4c-38.6,0-216.4,10.3-522.9-293.6C-0.3,389.2,10,211.5,10,172.8c0-38.6,110.8-131.4,139.1-149.4c28.3-20.6,56.7-12.9,67,2.6c10.3,15.5,123.6,188,136.5,208.6c7.7,12.9,5.2,36.1-5.2,56.7S270.2,415,270.2,415s18,72.1,128.8,185.5C512.3,711.2,587,729.2,587,729.2z"/><path d="M808.6,87.8H551v103h257.6c28.3,0,51.5,23.2,51.5,51.5V500h103V242.4C963.1,157.4,893.6,87.8,808.6,87.8z"/><path d="M628.2,268.2L455.7,139.4L628.2,10.6V268.2z"/></g>
</svg>